<?xml version="1.0" encoding="UTF-8" standalone="no"?>
<!-- Created with Inkscape (http://www.inkscape.org/) -->

<svg
   width="512"
   height="512"
   viewBox="0 0 512 512"
   version="1.1"
   id="svg1"
   inkscape:version="1.3.2 (091e20e, 2023-11-25, custom)"
   sodipodi:docname="fantan.svg"
   xmlns:inkscape="http://www.inkscape.org/namespaces/inkscape"
   xmlns:sodipodi="http://sodipodi.sourceforge.net/DTD/sodipodi-0.dtd"
   xmlns="http://www.w3.org/2000/svg"
   xmlns:svg="http://www.w3.org/2000/svg">
  <sodipodi:namedview
     id="namedview1"
     pagecolor="#ffffff"
     bordercolor="#000000"
     borderopacity="0.25"
     inkscape:showpageshadow="2"
     inkscape:pageopacity="0.0"
     inkscape:pagecheckerboard="0"
     inkscape:deskcolor="#d1d1d1"
     inkscape:document-units="px"
     inkscape:zoom="1.6199927"
     inkscape:cx="143.82781"
     inkscape:cy="275.61853"
     inkscape:window-width="2560"
     inkscape:window-height="1369"
     inkscape:window-x="-8"
     inkscape:window-y="-8"
     inkscape:window-maximized="1"
     inkscape:current-layer="layer1" />
  <defs
     id="defs1" />
  <g
     inkscape:label="Layer 1"
     inkscape:groupmode="layer"
     id="layer1">
    <path
       d="m 55.966829,402.56567 v -37.80002 l 15.400011,-1.4 q 13.533342,-1.4 13.533342,-13.06668 V 133.29882 l -26.600018,-1.4 V 92.232124 H 283.70032 v 77.466716 l -47.60003,3.26667 v -18.66668 q 0,-7.93333 -2.33334,-11.2 -2.33333,-3.26667 -11.2,-3.26667 h -80.73339 v 82.60005 h 114.80008 v 47.60004 H 141.83356 v 91.46673 l 41.53336,1.4 v 39.66669 z M 346.6997,118.36548 h 30.33336 v 49.4667 h 62.06671 l -4.66667,39.20002 h -57.40004 v 122.73342 q 0,20.53335 7.46667,28.93336 7.46667,7.93334 22.86668,7.93334 15.86668,0 31.73336,-9.80001 l 14.00001,35.93336 q -23.33335,16.33334 -59.26671,16.33334 -21.00001,0 -35.46669,-5.6 -14.46668,-5.13334 -21.46668,-11.66668 -7.00001,-6.53333 -10.73334,-19.13334 -3.73334,-12.60001 -4.20001,-19.60002 -0.46666,-7.46667 -0.46666,-21.46668 V 207.0322 h -33.13336 l 4.66667,-34.06669 q 21.93335,-1.86666 33.13336,-15.40001 11.2,-14.00001 20.53334,-39.20002 z"
       id="text1"
       style="font-size:466.667px;line-height:0;font-family:'Bree Serif';-inkscape-font-specification:'Bree Serif'"
       aria-label="Ft" />
  </g>
</svg>
